{"title":"Punjab 1984 - (2014) - DvDScr - x264 - AAC - Punjabi - {-KingBha","uid":10469242,"size":735613497,"categoryP":"video","categoryS":"movies","magnet":"?xt=urn:btih:9f19a6f9fa6f8283fe36d5cb3cf3cf16de195e56&amp;dn=Punjab+1984+-+%282014%29+-+DvDScr+-+x264+-+AAC+-+Punjabi+-+%7B-KingBha&amp;tr=udp%3A%2F%2Ftracker.openbittorrent.com%3A80&amp;tr=udp%3A%2F%2Fopen.demonii.com%3A1337&amp;tr=udp%3A%2F%2Ftracker.coppersurfer.tk%3A6969&amp;tr=udp%3A%2F%2Fexodus.desync.com%3A6969","seeders":1,"leechers":2,"uploader":"OnlyByTheRain","files":3,"time":1404239109,"description":"\n\n[img]http://i.imgur.com/4EbC1Ya.jpg[/img]\n\n[b][color=red]General[/color]\nComplete name                            : Punjab 1984 - (2014) - DvDScr - x264 - AAC - Punjabi - {-KingBhai-} - [HKRG].mp4\nFormat                                   : MPEG-4\nFormat profile                           : Base Media\nCodec ID                                 : isom\nFile size                                : 701 MiB\nDuration                                 : 2h 21mn\nOverall bit rate mode                    : Variable\nOverall bit rate                         : 692 Kbps\nEncoded date                             : UTC 2014-07-01 13:08:29\nTagged date                              : UTC 2014-07-01 13:08:29\n\n[color=red]Video[/color]\nID                                       : 1\nFormat                                   : AVC\nFormat/Info                              : Advanced Video Codec\nFormat profile                           : &lt;a class=&quot;__cf_email__&quot; href=&quot;/cdn-cgi/l/email-protection&quot; data-cfemail=&quot;1951707e7159552d372b&quot;&gt;[email&amp;#160;protected]&lt;/a&gt;&lt;script cf-hash='f9e31' type=&quot;text/javascript&quot;&gt;\n/* &lt;![CDATA[ */!function(){try{var t=&quot;currentScript&quot;in document?document.currentScript:function(){for(var t=document.getElementsByTagName(&quot;script&quot;),e=t.length;e--;)if(t[e].getAttribute(&quot;cf-hash&quot;))return t[e]}();if(t&amp;&amp;t.previousSibling){var e,r,n,i,c=t.previousSibling,a=c.getAttribute(&quot;data-cfemail&quot;);if(a){for(e=&quot;&quot;,r=parseInt(a.substr(0,2),16),n=2;a.length-n;n+=2)i=parseInt(a.substr(n,2),16)^r,e+=String.fromCharCode(i);e=document.createTextNode(e),c.parentNode.replaceChild(e,c)}}}catch(u){}}();/* ]]&gt; */&lt;/script&gt;\nFormat settings, CABAC                   : Yes\nFormat settings, ReFrames                : 4 frames\nCodec ID                                 : avc1\nCodec ID/Info                            : Advanced Video Coding\nDuration                                 : 2h 21mn\nBit rate                                 : 610 Kbps\nMaximum bit rate                         : 2 849 Kbps\nWidth                                    : 640 pixels\nHeight                                   : 256 pixels\nDisplay aspect ratio                     : 2.500\nFrame rate mode                          : Constant\nFrame rate                               : 23.976 fps\nColor space                              : YUV\nChroma subsampling                       : 4:2:0\nBit depth                                : 8 bits\nScan type                                : Progressive\nBits/(Pixel*Frame)                       : 0.155\nStream size                              : 617 MiB (88%)\nWriting library                          : x264 core 142 r2431 \nEncoded date                             : UTC 2014-07-01 13:08:29\nTagged date                              : UTC 2014-07-01 13:08:56\n\n[color=red]Audio[/color]\nID                                       : 2\nFormat                                   : AAC\nFormat/Info                              : Advanced Audio Codec\nFormat profile                           : LC\nCodec ID                                 : 40\nDuration                                 : 2h 21mn\nBit rate mode                            : Variable\nBit rate                                 : 78.6 Kbps\nMaximum bit rate                         : 87.4 Kbps\nChannel(s)                               : 2 channels\nChannel positions                        : Front: L R\nSampling rate                            : 48.0 KHz\nCompression mode                         : Lossy\nStream size                              : 79.6 MiB (11%)\nLanguage                                 : Panjabi[/b]\n\n[img]http://i.imgur.com/qxhR5Ng.jpg[/img]\n\n[img]http://i.imgur.com/cG7lclB.png[/img]\n[img]http://i.imgur.com/8y2r0zm.png[/img]\n[img]http://i.imgur.com/xrREWT1.png[/img]\n\n[b][color=blue]Facebook[/color][/b]\nBhai Torrent [/url][/color](PAGE)[/b]\nKillers Release Group [/url][/color](PAGE)[/b]\nKillers Release Group [/color][/url](GROUP)[/b][/center]","torrent":{"xt":"urn:btih:9f19a6f9fa6f8283fe36d5cb3cf3cf16de195e56","amp;dn":"Punjab+1984+-+%282014%29+-+DvDScr+-+x264+-+AAC+-+Punjabi+-+%7B-KingBha","amp;tr":["udp%3A%2F%2Ftracker.openbittorrent.com%3A80","udp%3A%2F%2Fopen.demonii.com%3A1337","udp%3A%2F%2Ftracker.coppersurfer.tk%3A6969","udp%3A%2F%2Fexodus.desync.com%3A6969"],"infoHash":"9f19a6f9fa6f8283fe36d5cb3cf3cf16de195e56","infoHashBuffer":{"type":"Buffer","data":[159,25,166,249,250,111,130,131,254,54,213,203,60,243,207,22,222,25,94,86]},"announce":[],"urlList":[]}}